<?xml version="1.0" encoding="UTF-8"?>
<!--Generator: Apple Native CoreSVG 175-->
<!DOCTYPE svg
PUBLIC "-//W3C//DTD SVG 1.1//EN"
       "http://www.w3.org/Graphics/SVG/1.1/DTD/svg11.dtd">
<svg version="1.1" xmlns="http://www.w3.org/2000/svg" xmlns:xlink="http://www.w3.org/1999/xlink" width="3300" height="2200">
 <!--glyph: "uni100391.medium", point size: 100.0, font version: "17.3d3e1", template writer version: "65.1"-->
 <g id="Notes">
  <rect height="2200" id="artboard" style="fill:white;opacity:1" width="3300" x="0" y="0"/>
  <line style="fill:none;stroke:black;opacity:1;stroke-width:0.5;" x1="263" x2="3036" y1="292" y2="292"/>
  <text style="stroke:none;fill:black;font-family:sans-serif;font-size:13;font-weight:bold;" transform="matrix(1 0 0 1 263 322)">Weight/Scale Variations</text>
  <text style="stroke:none;fill:black;font-family:sans-serif;font-size:13;text-anchor:middle;" transform="matrix(1 0 0 1 559.711 322)">Ultralight</text>
  <text style="stroke:none;fill:black;font-family:sans-serif;font-size:13;text-anchor:middle;" transform="matrix(1 0 0 1 856.422 322)">Thin</text>
  <text style="stroke:none;fill:black;font-family:sans-serif;font-size:13;text-anchor:middle;" transform="matrix(1 0 0 1 1153.13 322)">Light</text>
  <text style="stroke:none;fill:black;font-family:sans-serif;font-size:13;text-anchor:middle;" transform="matrix(1 0 0 1 1449.84 322)">Regular</text>
  <text style="stroke:none;fill:black;font-family:sans-serif;font-size:13;text-anchor:middle;" transform="matrix(1 0 0 1 1746.56 322)">Medium</text>
  <text style="stroke:none;fill:black;font-family:sans-serif;font-size:13;text-anchor:middle;" transform="matrix(1 0 0 1 2043.27 322)">Semibold</text>
  <text style="stroke:none;fill:black;font-family:sans-serif;font-size:13;text-anchor:middle;" transform="matrix(1 0 0 1 2339.98 322)">Bold</text>
  <text style="stroke:none;fill:black;font-family:sans-serif;font-size:13;text-anchor:middle;" transform="matrix(1 0 0 1 2636.69 322)">Heavy</text>
  <text style="stroke:none;fill:black;font-family:sans-serif;font-size:13;text-anchor:middle;" transform="matrix(1 0 0 1 2933.4 322)">Black</text>
  <line style="fill:none;stroke:black;opacity:1;stroke-width:0.5;" x1="263" x2="3036" y1="1903" y2="1903"/>
  <g transform="matrix(1 0 0 1 263 1933)">
   <path d="M9.24805 0.830078Q10.8691 0.830078 12.2949 0.214844Q13.7207-0.400391 14.8096-1.49414Q15.8984-2.58789 16.5186-4.01367Q17.1387-5.43945 17.1387-7.05078Q17.1387-8.66211 16.5186-10.0879Q15.8984-11.5137 14.8047-12.6074Q13.7109-13.7012 12.2852-14.3164Q10.8594-14.9316 9.23828-14.9316Q7.62695-14.9316 6.20117-14.3164Q4.77539-13.7012 3.69141-12.6074Q2.60742-11.5137 1.9873-10.0879Q1.36719-8.66211 1.36719-7.05078Q1.36719-5.43945 1.9873-4.01367Q2.60742-2.58789 3.69629-1.49414Q4.78516-0.400391 6.21094 0.214844Q7.63672 0.830078 9.24805 0.830078ZM9.24805-0.654297Q7.91992-0.654297 6.7627-1.14746Q5.60547-1.64062 4.73145-2.51953Q3.85742-3.39844 3.36426-4.56055Q2.87109-5.72266 2.87109-7.05078Q2.87109-8.37891 3.35938-9.54102Q3.84766-10.7031 4.72168-11.582Q5.5957-12.4609 6.75293-12.9541Q7.91016-13.4473 9.23828-13.4473Q10.5762-13.4473 11.7334-12.9541Q12.8906-12.4609 13.7695-11.582Q14.6484-10.7031 15.1465-9.54102Q15.6445-8.37891 15.6445-7.05078Q15.6445-5.72266 15.1514-4.56055Q14.6582-3.39844 13.7842-2.51953Q12.9102-1.64062 11.748-1.14746Q10.5859-0.654297 9.24805-0.654297ZM5.6543-7.05078Q5.6543-6.72852 5.85938-6.52832Q6.06445-6.32812 6.40625-6.32812L8.51562-6.32812L8.51562-4.20898Q8.51562-3.88672 8.71094-3.67676Q8.90625-3.4668 9.23828-3.4668Q9.56055-3.4668 9.77051-3.67676Q9.98047-3.88672 9.98047-4.20898L9.98047-6.32812L12.0898-6.32812Q12.4219-6.32812 12.627-6.52832Q12.832-6.72852 12.832-7.05078Q12.832-7.38281 12.627-7.58789Q12.4219-7.79297 12.0898-7.79297L9.98047-7.79297L9.98047-9.90234Q9.98047-10.2344 9.77051-10.4443Q9.56055-10.6543 9.23828-10.6543Q8.90625-10.6543 8.71094-10.4443Q8.51562-10.2344 8.51562-9.90234L8.51562-7.79297L6.40625-7.79297Q6.06445-7.79297 5.85938-7.58789Q5.6543-7.38281 5.6543-7.05078Z"/>
  </g>
  <g transform="matrix(1 0 0 1 281.867 1933)">
   <path d="M11.709 2.91016Q13.75 2.91016 15.5518 2.12891Q17.3535 1.34766 18.7305-0.0292969Q20.1074-1.40625 20.8887-3.20801Q21.6699-5.00977 21.6699-7.05078Q21.6699-9.0918 20.8887-10.8936Q20.1074-12.6953 18.7305-14.0723Q17.3535-15.4492 15.5469-16.2305Q13.7402-17.0117 11.6992-17.0117Q9.6582-17.0117 7.85645-16.2305Q6.05469-15.4492 4.68262-14.0723Q3.31055-12.6953 2.5293-10.8936Q1.74805-9.0918 1.74805-7.05078Q1.74805-5.00977 2.5293-3.20801Q3.31055-1.40625 4.6875-0.0292969Q6.06445 1.34766 7.86621 2.12891Q9.66797 2.91016 11.709 2.91016ZM11.709 1.25Q9.98047 1.25 8.47656 0.605469Q6.97266-0.0390625 5.83496-1.17676Q4.69727-2.31445 4.05762-3.81836Q3.41797-5.32227 3.41797-7.05078Q3.41797-8.7793 4.05762-10.2832Q4.69727-11.7871 5.83008-12.9297Q6.96289-14.0723 8.4668-14.7119Q9.9707-15.3516 11.6992-15.3516Q13.4277-15.3516 14.9316-14.7119Q16.4355-14.0723 17.5781-12.9297Q18.7207-11.7871 19.3652-10.2832Q20.0098-8.7793 20.0098-7.05078Q20.0098-5.32227 19.3701-3.81836Q18.7305-2.31445 17.5928-1.17676Q16.4551-0.0390625 14.9463 0.605469Q13.4375 1.25 11.709 1.25ZM7.17773-7.05078Q7.17773-6.69922 7.41211-6.47461Q7.64648-6.25 8.01758-6.25L10.8887-6.25L10.8887-3.36914Q10.8887-2.99805 11.1133-2.76855Q11.3379-2.53906 11.6895-2.53906Q12.0605-2.53906 12.29-2.76855Q12.5195-2.99805 12.5195-3.36914L12.5195-6.25L15.4004-6.25Q15.7715-6.25 16.001-6.47461Q16.2305-6.69922 16.2305-7.05078Q16.2305-7.42188 16.001-7.65137Q15.7715-7.88086 15.4004-7.88086L12.5195-7.88086L12.5195-10.752Q12.5195-11.1328 12.29-11.3623Q12.0605-11.5918 11.6895-11.5918Q11.3379-11.5918 11.1133-11.3574Q10.8887-11.123 10.8887-10.752L10.8887-7.88086L8.01758-7.88086Q7.63672-7.88086 7.40723-7.65137Q7.17773-7.42188 7.17773-7.05078Z"/>
  </g>
  <g transform="matrix(1 0 0 1 305.646 1933)">
   <path d="M14.9707 5.66406Q17.0605 5.66406 18.96 5.01465Q20.8594 4.36523 22.4512 3.19336Q24.043 2.02148 25.2197 0.429688Q26.3965-1.16211 27.0459-3.06641Q27.6953-4.9707 27.6953-7.05078Q27.6953-9.14062 27.0459-11.04Q26.3965-12.9395 25.2197-14.5312Q24.043-16.123 22.4512-17.2998Q20.8594-18.4766 18.9551-19.126Q17.0508-19.7754 14.9609-19.7754Q12.8711-19.7754 10.9717-19.126Q9.07227-18.4766 7.48535-17.2998Q5.89844-16.123 4.72168-14.5312Q3.54492-12.9395 2.90039-11.04Q2.25586-9.14062 2.25586-7.05078Q2.25586-4.9707 2.90527-3.06641Q3.55469-1.16211 4.72656 0.429688Q5.89844 2.02148 7.49023 3.19336Q9.08203 4.36523 10.9814 5.01465Q12.8809 5.66406 14.9707 5.66406ZM14.9707 3.84766Q13.1641 3.84766 11.5283 3.2959Q9.89258 2.74414 8.53516 1.74805Q7.17773 0.751953 6.17676-0.610352Q5.17578-1.97266 4.62891-3.6084Q4.08203-5.24414 4.08203-7.05078Q4.08203-8.86719 4.62891-10.5029Q5.17578-12.1387 6.17188-13.501Q7.16797-14.8633 8.52539-15.8594Q9.88281-16.8555 11.5186-17.4023Q13.1543-17.9492 14.9609-17.9492Q16.7773-17.9492 18.4131-17.4023Q20.0488-16.8555 21.4111-15.8594Q22.7734-14.8633 23.7695-13.501Q24.7656-12.1387 25.3174-10.5029Q25.8691-8.86719 25.8691-7.05078Q25.8789-5.24414 25.332-3.6084Q24.7852-1.97266 23.7842-0.610352Q22.7832 0.751953 21.4209 1.74805Q20.0586 2.74414 18.4229 3.2959Q16.7871 3.84766 14.9707 3.84766ZM9.19922-7.05078Q9.19922-6.66992 9.45801-6.4209Q9.7168-6.17188 10.1172-6.17188L14.0625-6.17188L14.0625-2.2168Q14.0625-1.81641 14.3115-1.55762Q14.5605-1.29883 14.9512-1.29883Q15.3516-1.29883 15.6104-1.55273Q15.8691-1.80664 15.8691-2.2168L15.8691-6.17188L19.8242-6.17188Q20.2246-6.17188 20.4785-6.4209Q20.7324-6.66992 20.7324-7.05078Q20.7324-7.46094 20.4785-7.71484Q20.2246-7.96875 19.8242-7.96875L15.8691-7.96875L15.8691-11.9141Q15.8691-12.3242 15.6104-12.583Q15.3516-12.8418 14.9512-12.8418Q14.5605-12.8418 14.3115-12.583Q14.0625-12.3242 14.0625-11.9141L14.0625-7.96875L10.1172-7.96875Q9.70703-7.96875 9.45312-7.71484Q9.19922-7.46094 9.19922-7.05078Z"/>
  </g>
  <text style="stroke:none;fill:black;font-family:sans-serif;font-size:13;font-weight:bold;" transform="matrix(1 0 0 1 263 1953)">Design Variations</text>
  <text style="stroke:none;fill:black;font-family:sans-serif;font-size:13;" transform="matrix(1 0 0 1 263 1971)">Symbols are supported in up to nine weights and three scales.</text>
  <text style="stroke:none;fill:black;font-family:sans-serif;font-size:13;" transform="matrix(1 0 0 1 263 1989)">For optimal layout with text and other symbols, vertically align</text>
  <text style="stroke:none;fill:black;font-family:sans-serif;font-size:13;" transform="matrix(1 0 0 1 263 2007)">symbols with the adjacent text.</text>
  <line style="fill:none;stroke:#00AEEF;stroke-width:0.5;opacity:1.0;" x1="776" x2="776" y1="1919" y2="1933"/>
  <g transform="matrix(1 0 0 1 776 1933)">
   <path d="M3.31055 0.15625Q3.70117 0.15625 3.91602-0.00976562Q4.13086-0.175781 4.26758-0.585938L5.52734-4.0332L11.2891-4.0332L12.5488-0.585938Q12.6855-0.175781 12.9004-0.00976562Q13.1152 0.15625 13.4961 0.15625Q13.8867 0.15625 14.1162-0.0585938Q14.3457-0.273438 14.3457-0.644531Q14.3457-0.869141 14.2383-1.17188L9.6582-13.3691Q9.48242-13.8184 9.17969-14.043Q8.87695-14.2676 8.4082-14.2676Q7.5-14.2676 7.17773-13.3789L2.59766-1.16211Q2.49023-0.859375 2.49023-0.634766Q2.49023-0.263672 2.70996-0.0537109Q2.92969 0.15625 3.31055 0.15625ZM6.00586-5.51758L8.37891-12.0898L8.42773-12.0898L10.8008-5.51758Z"/>
  </g>
  <line style="fill:none;stroke:#00AEEF;stroke-width:0.5;opacity:1.0;" x1="793.197" x2="793.197" y1="1919" y2="1933"/>
  <text style="stroke:none;fill:black;font-family:sans-serif;font-size:13;font-weight:bold;" transform="matrix(1 0 0 1 776 1953)">Margins</text>
  <text style="stroke:none;fill:black;font-family:sans-serif;font-size:13;" transform="matrix(1 0 0 1 776 1971)">Leading and trailing margins on the left and right side of each symbol</text>
  <text style="stroke:none;fill:black;font-family:sans-serif;font-size:13;" transform="matrix(1 0 0 1 776 1989)">can be adjusted by modifying the x-location of the margin guidelines.</text>
  <text style="stroke:none;fill:black;font-family:sans-serif;font-size:13;" transform="matrix(1 0 0 1 776 2007)">Modifications are automatically applied proportionally to all</text>
  <text style="stroke:none;fill:black;font-family:sans-serif;font-size:13;" transform="matrix(1 0 0 1 776 2025)">scales and weights.</text>
  <g transform="matrix(1 0 0 1 1289 1933)">
   <path d="M2.8418 1.86523L4.54102 3.57422Q5.18555 4.22852 5.90332 4.17969Q6.62109 4.13086 7.31445 3.35938L18.0078-8.42773L17.041-9.4043L6.42578 2.27539Q6.16211 2.57812 5.89355 2.61719Q5.625 2.65625 5.27344 2.30469L4.10156 1.14258Q3.75 0.791016 3.79395 0.522461Q3.83789 0.253906 4.14062-0.0195312L15.6152-10.8203L14.6387-11.7871L3.04688-0.898438Q2.30469-0.214844 2.25098 0.498047Q2.19727 1.21094 2.8418 1.86523ZM9.25781-16.3281Q8.94531-16.0254 8.90625-15.6348Q8.86719-15.2441 9.04297-14.9512Q9.21875-14.6777 9.55566-14.541Q9.89258-14.4043 10.3809-14.5215Q11.4746-14.7754 12.5977-14.7314Q13.7207-14.6875 14.7949-13.9844L14.209-12.5293Q13.9551-11.9043 14.0674-11.4404Q14.1797-10.9766 14.5801-10.5664L16.875-8.25195Q17.2363-7.88086 17.5781-7.82227Q17.9199-7.76367 18.3398-7.8418L19.4043-8.03711L20.0684-7.36328L20.0293-6.80664Q20-6.43555 20.1221-6.12305Q20.2441-5.81055 20.6055-5.44922L21.3672-4.70703Q21.7285-4.3457 22.1533-4.33105Q22.5781-4.31641 22.9297-4.66797L25.8398-7.58789Q26.1914-7.93945 26.1816-8.35449Q26.1719-8.76953 25.8105-9.13086L25.0391-9.89258Q24.6875-10.2539 24.3799-10.3857Q24.0723-10.5176 23.7109-10.4883L23.1348-10.4395L22.4902-11.0742L22.7344-12.1973Q22.832-12.6172 22.6953-12.9834Q22.5586-13.3496 22.1191-13.7891L19.9219-15.9766Q18.6719-17.2168 17.2607-17.8369Q15.8496-18.457 14.4189-18.4814Q12.9883-18.5059 11.665-17.959Q10.3418-17.4121 9.25781-16.3281ZM10.752-15.957Q11.6602-16.6211 12.7002-16.9043Q13.7402-17.1875 14.8047-17.085Q15.8691-16.9824 16.8701-16.5137Q17.8711-16.0449 18.7012-15.2051L21.1328-12.793Q21.3086-12.6172 21.3525-12.4512Q21.3965-12.2852 21.3379-12.0312L21.0156-10.5469L22.5195-9.0625L23.5059-9.12109Q23.6914-9.13086 23.7891-9.09668Q23.8867-9.0625 24.0332-8.91602L24.6094-8.33984L22.168-5.89844L21.5918-6.47461Q21.4453-6.62109 21.4062-6.71875Q21.3672-6.81641 21.377-7.01172L21.4453-7.98828L19.9512-9.47266L18.4277-9.21875Q18.1836-9.16992 18.042-9.2041Q17.9004-9.23828 17.7148-9.41406L15.7129-11.416Q15.5176-11.5918 15.4932-11.7529Q15.4688-11.9141 15.5859-12.1875L16.4648-14.2773Q15.293-15.3711 13.8281-15.791Q12.3633-16.2109 10.8398-15.7617Q10.7227-15.7324 10.6885-15.8057Q10.6543-15.8789 10.752-15.957Z"/>
  </g>
  <text style="stroke:none;fill:black;font-family:sans-serif;font-size:13;font-weight:bold;" transform="matrix(1 0 0 1 1289 1953)">Exporting</text>
  <text style="stroke:none;fill:black;font-family:sans-serif;font-size:13;" transform="matrix(1 0 0 1 1289 1971)">Symbols should be outlined when exporting to ensure the</text>
  <text style="stroke:none;fill:black;font-family:sans-serif;font-size:13;" transform="matrix(1 0 0 1 1289 1989)">design is preserved when submitting to Xcode.</text>
  <text id="template-version" style="stroke:none;fill:black;font-family:sans-serif;font-size:13;text-anchor:end;" transform="matrix(1 0 0 1 3036 1933)">Template v.3.0</text>
  <text style="stroke:none;fill:black;font-family:sans-serif;font-size:13;text-anchor:end;" transform="matrix(1 0 0 1 3036 1951)">Requires Xcode 13 or greater</text>
  <text id="descriptive-name" style="stroke:none;fill:black;font-family:sans-serif;font-size:13;text-anchor:end;" transform="matrix(1 0 0 1 3036 1969)">Generated from paintbrush</text>
  <text style="stroke:none;fill:black;font-family:sans-serif;font-size:13;text-anchor:end;" transform="matrix(1 0 0 1 3036 1987)">Typeset at 100 points</text>
  <text style="stroke:none;fill:black;font-family:sans-serif;font-size:13;" transform="matrix(1 0 0 1 263 726)">Small</text>
  <text style="stroke:none;fill:black;font-family:sans-serif;font-size:13;" transform="matrix(1 0 0 1 263 1156)">Medium</text>
  <text style="stroke:none;fill:black;font-family:sans-serif;font-size:13;" transform="matrix(1 0 0 1 263 1586)">Large</text>
 </g>
 <g id="Guides">
  <g id="H-reference" style="fill:#27AAE1;stroke:none;" transform="matrix(1 0 0 1 339 696)">
   <path d="M0.993347 0L3.6377 0L29.3282-67.1326L30.0301-67.1326L30.0301-70.459L28.1227-70.459ZM11.6882-24.4797L46.9818-24.4797L46.2311-26.7288L12.4382-26.7288ZM55.1193 0L57.7637 0L30.6381-70.459L29.4327-70.459L29.4327-67.1326Z"/>
  </g>
  <line id="Baseline-S" style="fill:none;stroke:#27AAE1;opacity:1;stroke-width:0.5;" x1="263" x2="3036" y1="696" y2="696"/>
  <line id="Capline-S" style="fill:none;stroke:#27AAE1;opacity:1;stroke-width:0.5;" x1="263" x2="3036" y1="625.541" y2="625.541"/>
  <g id="H-reference" style="fill:#27AAE1;stroke:none;" transform="matrix(1 0 0 1 339 1126)">
   <path d="M0.993347 0L3.6377 0L29.3282-67.1326L30.0301-67.1326L30.0301-70.459L28.1227-70.459ZM11.6882-24.4797L46.9818-24.4797L46.2311-26.7288L12.4382-26.7288ZM55.1193 0L57.7637 0L30.6381-70.459L29.4327-70.459L29.4327-67.1326Z"/>
  </g>
  <line id="Baseline-M" style="fill:none;stroke:#27AAE1;opacity:1;stroke-width:0.5;" x1="263" x2="3036" y1="1126" y2="1126"/>
  <line id="Capline-M" style="fill:none;stroke:#27AAE1;opacity:1;stroke-width:0.5;" x1="263" x2="3036" y1="1055.54" y2="1055.54"/>
  <g id="H-reference" style="fill:#27AAE1;stroke:none;" transform="matrix(1 0 0 1 339 1556)">
   <path d="M0.993347 0L3.6377 0L29.3282-67.1326L30.0301-67.1326L30.0301-70.459L28.1227-70.459ZM11.6882-24.4797L46.9818-24.4797L46.2311-26.7288L12.4382-26.7288ZM55.1193 0L57.7637 0L30.6381-70.459L29.4327-70.459L29.4327-67.1326Z"/>
  </g>
  <line id="Baseline-L" style="fill:none;stroke:#27AAE1;opacity:1;stroke-width:0.5;" x1="263" x2="3036" y1="1556" y2="1556"/>
  <line id="Capline-L" style="fill:none;stroke:#27AAE1;opacity:1;stroke-width:0.5;" x1="263" x2="3036" y1="1485.54" y2="1485.54"/>
  <line id="left-margin-Ultralight-S" style="fill:none;stroke:#00AEEF;stroke-width:0.5;opacity:1.0;" x1="512.975" x2="512.975" y1="600.785" y2="720.121"/>
  <line id="right-margin-Ultralight-S" style="fill:none;stroke:#00AEEF;stroke-width:0.5;opacity:1.0;" x1="606.447" x2="606.447" y1="600.785" y2="720.121"/>
  <line id="left-margin-Regular-S" style="fill:none;stroke:#00AEEF;stroke-width:0.5;opacity:1.0;" x1="1399.77" x2="1399.77" y1="600.785" y2="720.121"/>
  <line id="right-margin-Regular-S" style="fill:none;stroke:#00AEEF;stroke-width:0.5;opacity:1.0;" x1="1499.92" x2="1499.92" y1="600.785" y2="720.121"/>
  <line id="left-margin-Black-S" style="fill:none;stroke:#00AEEF;stroke-width:0.5;opacity:1.0;" x1="2880.15" x2="2880.15" y1="600.785" y2="720.121"/>
  <line id="right-margin-Black-S" style="fill:none;stroke:#00AEEF;stroke-width:0.5;opacity:1.0;" x1="2986.65" x2="2986.65" y1="600.785" y2="720.121"/>
 </g>
 <g id="Symbols">
  <g id="Black-S" transform="matrix(1 0 0 1 2880.15 696)">
   <path d="M14.7461 8.98438Q20.6543 14.8926 27.2461 14.9658Q33.8379 15.0391 39.6973 9.22852Q41.3086 7.66602 42.8955 5.34668Q44.4824 3.02734 46.0205 0.463867Q47.5586-2.09961 48.999-4.56543Q50.4395-7.03125 51.6602-8.88672L58.6914-1.80664Q61.9141 1.41602 65.7227 1.44043Q69.5312 1.46484 72.6074-1.66016L78.0273-7.12891Q81.2012-10.3027 81.1523-14.0625Q81.1035-17.8223 77.8809-20.9961L44.7754-54.1504Q41.5527-57.4219 37.793-57.4219Q34.0332-57.4219 30.8105-54.248L25.4395-48.877Q22.2656-45.7031 22.3145-41.9678Q22.3633-38.2324 25.5859-34.9609L32.5684-27.9297Q30.7617-26.6602 28.3203-25.2197Q25.8789-23.7793 23.291-22.2412Q20.7031-20.7031 18.4082-19.1162Q16.1133-17.5293 14.5508-15.9668Q8.74023-10.1074 8.78906-3.51562Q8.83789 3.07617 14.7461 8.98438ZM35.6934-41.0156L38.0859-43.4082Q38.4277-43.75 38.7695-43.4082L67.0898-15.0879Q67.4316-14.7461 67.0898-14.4043L64.6973-12.0117Q64.3555-11.6699 63.9648-12.0117L54.541-21.4355Q52.832-23.1445 50.6104-23.0469Q48.3887-22.9492 46.4355-21.0938Q45.3125-20.0195 43.8232-17.4561Q42.334-14.8926 40.5518-11.6943Q38.7695-8.49609 36.6943-5.34668Q34.6191-2.19727 32.2754 0.0976562Q30.3223 2.05078 28.0518 2.02637Q25.7812 2.00195 23.7305 0Q21.7285-2.05078 21.7041-4.3457Q21.6797-6.64062 23.6328-8.59375Q25.9766-10.8887 29.126-12.9395Q32.2754-14.9902 35.4736-16.7969Q38.6719-18.6035 41.2354-20.0928Q43.7988-21.582 44.873-22.7051Q46.7285-24.6582 46.8262-26.8799Q46.9238-29.1016 45.166-30.8105L35.6934-40.332Q35.3516-40.625 35.6934-41.0156ZM28.0273-0.585938Q29.5898-0.585938 30.6396-1.66016Q31.6895-2.73438 31.6895-4.24805Q31.6895-5.76172 30.6396-6.83594Q29.5898-7.91016 28.0273-7.91016Q26.5625-7.91016 25.4639-6.83594Q24.3652-5.76172 24.3652-4.24805Q24.3652-2.73438 25.4639-1.66016Q26.5625-0.585938 28.0273-0.585938ZM73.6816-12.5977L93.75-32.6172Q97.8027-36.6699 97.7051-41.333Q97.6074-45.9961 93.5059-50.1465L63.2324-80.4688Q60.2539-83.4961 56.6406-83.6914Q53.0273-83.8867 50.0977-81.7139Q47.168-79.541 46.1914-75.3418Q44.9219-69.7754 44.0674-66.3086Q43.2129-62.8418 42.5293-60.6445Q41.8457-58.4473 41.0156-56.8115Q40.1855-55.1758 38.9404-53.3691Q37.6953-51.5625 35.6934-48.7793L43.9941-40.5762Q47.4609-44.7266 49.3896-47.9004Q51.3184-51.0742 52.4414-54.0771Q53.5645-57.0801 54.4678-60.5469Q55.3711-64.0137 56.6895-68.75Q56.8359-69.1406 57.0801-69.2139Q57.3242-69.2871 57.6172-68.9941L84.7656-41.8457Q85.3516-41.3086 85.3516-41.0156Q85.3516-40.7227 84.9121-40.2832L65.4785-20.8008ZM67.041-37.5488Q67.8223-36.8164 69.9951-37.4268Q72.168-38.0371 74.9023-39.502Q77.6367-40.9668 80.1514-42.8711Q82.666-44.7754 84.082-46.582L75.6836-54.9805Q75.1465-49.9023 72.7539-46.0693Q70.3613-42.2363 67.1387-39.0137Q66.3574-38.2324 67.041-37.5488Z"/>
  </g>
  <g id="Regular-S" transform="matrix(1 0 0 1 1399.77 696)">
   <path d="M13.8184 5.85938Q18.75 10.791 24.2432 10.8398Q29.7363 10.8887 34.5703 6.00586Q36.2305 4.39453 37.915 1.83105Q39.5996-0.732422 41.2598-3.58887Q42.9199-6.44531 44.4336-8.95996Q45.9473-11.4746 47.2656-13.0371L54.9805-5.27344Q57.4219-2.7832 60.1562-2.7832Q62.8906-2.7832 65.2344-5.12695L70.3613-10.3027Q72.7539-12.6953 72.7295-15.3564Q72.7051-18.0176 70.2148-20.5078L40.1367-50.5859Q37.6465-53.0762 34.9609-53.1006Q32.2754-53.125 29.8828-50.7324L24.7559-45.6055Q22.4121-43.2617 22.4121-40.5518Q22.4121-37.8418 24.9023-35.3516L32.6172-27.6367Q31.1035-26.3184 28.5889-24.8047Q26.0742-23.291 23.2178-21.6309Q20.3613-19.9707 17.7979-18.2861Q15.2344-16.6016 13.623-14.9414Q8.74023-10.1074 8.78906-4.58984Q8.83789 0.927734 13.8184 5.85938ZM30.9082-41.7969L33.7891-44.5801Q35.3516-46.1426 36.8652-44.6289L64.2578-17.2363Q65.7715-15.7227 64.209-14.1602L61.4258-11.3281Q59.8145-9.66797 58.252-11.2793L49.3164-20.3125Q48.1934-21.4844 46.7773-21.3623Q45.3613-21.2402 44.043-19.9707Q43.0176-18.9453 41.5527-16.4307Q40.0879-13.916 38.2812-10.6934Q36.4746-7.4707 34.3506-4.27246Q32.2266-1.07422 29.8828 1.26953Q27.1973 3.95508 24.1699 3.95508Q21.1426 3.95508 18.4082 1.2207Q15.6738-1.51367 15.6738-4.56543Q15.6738-7.61719 18.3105-10.2539Q20.6543-12.5977 23.877-14.7217Q27.0996-16.8457 30.3223-18.6523Q33.5449-20.459 36.0596-21.9238Q38.5742-23.3887 39.5996-24.4141Q40.8691-25.7324 40.9912-27.1484Q41.1133-28.5645 39.9902-29.6875L30.9082-38.6719Q29.3457-40.2344 30.9082-41.7969ZM24.1699 0.439453Q26.123 0.439453 27.5635-1.00098Q29.0039-2.44141 29.0039-4.44336Q29.0039-6.44531 27.5635-7.86133Q26.123-9.27734 24.1699-9.27734Q22.168-9.27734 20.7275-7.86133Q19.2871-6.44531 19.2871-4.44336Q19.2871-2.44141 20.7275-1.00098Q22.168 0.439453 24.1699 0.439453ZM69.6777-16.0645L88.0859-34.4727Q91.4551-37.793 91.3818-41.5283Q91.3086-45.2637 87.8906-48.6816L57.666-78.9551Q55.5664-81.0547 52.7832-81.2256Q50-81.3965 47.6562-79.8096Q45.3125-78.2227 44.5801-74.9512Q43.457-70.1172 42.7002-66.8945Q41.9434-63.6719 41.3086-61.4258Q40.6738-59.1797 39.8682-57.373Q39.0625-55.5664 37.8906-53.6865Q36.7188-51.8066 34.8633-49.2188L39.8926-44.2383Q42.5293-47.6074 44.1162-50.3906Q45.7031-53.1738 46.7285-56.0303Q47.7539-58.8867 48.7061-62.5244Q49.6582-66.1621 51.0742-71.2891Q51.416-72.4609 52.2461-72.7783Q53.0762-73.0957 54.0039-72.2168L82.5195-43.75Q83.7402-42.5293 83.7646-41.2354Q83.7891-39.9414 82.666-38.8184L64.7949-20.9473ZM63.1836-37.8906Q63.9648-37.1094 66.1133-37.7197Q68.2617-38.3301 70.9961-39.8193Q73.7305-41.3086 76.2695-43.2129Q78.8086-45.1172 80.2246-46.9238L71.8262-55.3223Q71.2891-50.1953 68.8965-46.3867Q66.5039-42.5781 63.2812-39.3555Q62.5-38.5742 63.1836-37.8906Z"/>
  </g>
  <g id="Ultralight-S" transform="matrix(1 0 0 1 512.975 696)">
   <path d="M12.8647 3.81622Q16.9792 7.8392 21.4958 7.88803Q26.0124 7.93686 29.9843 3.91693Q32.1434 1.76086 34.1232-1.41563Q36.1031-4.59213 37.9223-8.0162Q39.7415-11.4403 41.4368-14.4093Q43.132-17.3782 44.7678-19.1673L54.7531-9.17892Q56.1501-7.77817 57.8175-7.80106Q59.4849-7.82394 60.8299-9.21402L65.0482-13.3904Q66.3963-14.7842 66.3948-16.4238Q66.3933-18.0634 65.0383-19.4183L36.0954-48.3612Q34.6947-49.7612 33.0765-49.7402Q31.4583-49.7192 30.0644-48.3711L25.8911-44.1521Q24.501-42.8078 24.4556-41.1423Q24.4102-39.4768 25.8102-38.076L35.8414-28.0907Q34.0553-26.4999 31.0863-24.8047Q28.1174-23.1094 24.6933-21.2902Q21.2692-19.471 18.0927-17.4915Q14.9162-15.5121 12.7602-13.3522Q8.74023-9.33533 8.78906-4.81682Q8.83789-0.298309 12.8647 3.81622ZM27.4574-42.6598L31.5643-46.7598Q33.1268-48.3223 34.6405-46.7628L63.4407-17.9626Q64.9086-16.4948 63.3919-14.8865L59.3369-10.8284Q57.8163-9.25903 56.2538-10.8253L46.3196-20.7214Q45.6505-21.3936 44.87-21.4531Q44.0895-21.5126 43.3617-20.7428Q41.8365-19.2635 40.0314-16.2266Q38.2263-13.1897 36.2835-9.6035Q34.3407-6.0173 32.3299-2.77367Q30.3192 0.469971 28.4294 2.40479Q25.1991 5.68085 21.4909 5.63545Q17.7826 5.59006 14.3669 2.21939Q11.0878-1.10474 11.042-4.8378Q10.9962-8.57086 14.2693-11.7981Q16.2041-13.7329 19.4496-15.7207Q22.6952-17.7086 26.281-19.6514Q29.8668-21.5942 32.9037-23.3768Q35.9406-25.1595 37.4199-26.6846Q38.1447-27.4582 38.1077-28.2158Q38.0707-28.9734 37.4016-29.6417L27.4574-39.5798Q25.8949-41.1423 27.4574-42.6598ZM20.7191 0.0762939Q22.4449 0.0762939 23.6355-1.13716Q24.826-2.35062 24.826-4.12521Q24.826-5.8548 23.6355-7.08923Q22.4449-8.32367 20.7191-8.32367Q18.9438-8.32367 17.7078-7.08923Q16.4719-5.8548 16.4719-4.12521Q16.4719-2.35062 17.7078-1.13716Q18.9438 0.0762939 20.7191 0.0762939ZM65.0459-18.4715L82.0465-35.4713Q84.6893-38.1111 84.684-41.2334Q84.6786-44.3558 82.0786-46.9559L52.8976-76.1398Q51.2527-77.7397 49.332-77.956Q47.4113-78.1723 45.8397-76.9714Q44.268-75.7706 43.7172-73.2712Q42.8665-69.4359 42.1326-66.4402Q41.3986-63.4445 40.6502-61.0168Q39.9017-58.5892 39.0507-56.5331Q38.1996-54.4769 37.1185-52.597Q36.0374-50.7172 34.6359-48.8098L36.3052-47.1901Q38.1248-49.9687 39.4165-52.3434Q40.7082-54.718 41.6882-57.3929Q42.6682-60.0677 43.6203-63.6372Q44.5724-67.2066 45.7611-72.3785Q46.3753-75.0496 48.1819-75.4803Q49.9886-75.9109 51.2337-74.6689L80.4764-45.43Q82.3776-43.528 82.3566-41.2125Q82.3357-38.8969 80.4413-37.0018L63.5231-20.0394ZM61.0947-40.1611Q61.8759-39.4249 64.0472-40.0352Q66.2186-40.6456 68.9529-42.1124Q71.6873-43.5791 74.2035-45.4834Q76.7197-47.3877 78.1357-49.1943L69.6922-57.5928Q69.2001-52.5116 66.8076-48.6801Q64.415-44.8486 61.1923-41.626Q60.4111-40.8447 61.0947-40.1611Z"/>
  </g>
 </g>
</svg>
